<svg width="55" height="63" viewBox="0 0 55 63" fill="none" xmlns="http://www.w3.org/2000/svg">
<path d="M54.8348 46.1386C53.3398 49.3976 52.6248 50.8549 50.7048 53.7349C48.0223 57.757 44.2348 62.7761 39.5523 62.8106C35.3873 62.845 34.3123 60.1349 28.6598 60.1792C23.0073 60.2062 21.8298 62.8598 17.6598 62.8179C12.9773 62.7761 9.39228 58.2543 6.70728 54.2395C-0.800217 42.9779 -1.59272 29.7792 3.04728 22.7564C6.32978 17.7767 11.5248 14.8524 16.4023 14.8524C21.3698 14.8524 24.4923 17.5404 28.5998 17.5404C32.5848 17.5404 35.0123 14.845 40.7573 14.845C45.1023 14.845 49.6973 17.1761 52.9798 21.1983C42.2398 26.9927 43.9848 42.0967 54.8348 46.1386ZM36.3973 10.3503C38.4873 7.70902 40.0723 3.98226 39.4973 0.181641C36.0873 0.410564 32.0998 2.55456 29.7698 5.33118C27.6598 7.85918 25.9098 11.6155 26.5923 15.2487C30.3123 15.3669 34.1623 13.1835 36.3973 10.3503Z" fill="white"/>
</svg>
