<svg width="44" height="44" viewBox="0 0 44 44" fill="none" xmlns="http://www.w3.org/2000/svg">
<path d="M21.9999 4.3999C17.3321 4.3999 12.8555 6.25418 9.55482 9.55482C6.25418 12.8555 4.3999 17.3321 4.3999 21.9999C4.3999 26.6677 6.25418 31.1443 9.55482 34.445C12.8555 37.7456 17.3321 39.5999 21.9999 39.5999C26.6677 39.5999 31.1443 37.7456 34.445 34.445C37.7456 31.1443 39.5999 26.6677 39.5999 21.9999C39.5999 17.3321 37.7456 12.8555 34.445 9.55482C31.1443 6.25418 26.6677 4.3999 21.9999 4.3999ZM18.3391 7.0377C20.7457 6.44987 23.2585 6.44987 25.6651 7.0377L21.9999 9.1739L18.3391 7.0399V7.0377ZM15.6023 7.9881L20.9043 11.0791V14.8191L14.8125 19.1135L11.3805 17.8661L10.0033 12.3397C11.5069 10.474 13.4237 8.98351 15.6023 7.9859V7.9881ZM8.3621 14.8411L9.2267 18.3171L6.6659 20.5919C6.8529 18.5305 7.4447 16.5879 8.3643 14.8411H8.3621ZM6.6747 23.5223L10.6941 19.9583L14.0953 21.1925L16.3943 28.4305L14.8169 30.7911H9.3543C7.8528 28.6379 6.93007 26.1349 6.6747 23.5223ZM11.2133 32.9911H14.6321L15.7541 36.0799C14.068 35.3301 12.53 34.284 11.2133 32.9911ZM18.4205 36.9819L16.6275 32.0407L18.1895 29.7021H25.8169L27.3811 32.0407L25.5881 36.9797C23.232 37.5422 20.7766 37.5422 18.4205 36.9797V36.9819ZM28.2567 36.0755L29.3787 32.9911H32.7865C31.4726 34.2812 29.9385 35.3258 28.2567 36.0755ZM34.6455 30.7911H29.1939L27.6099 28.4261L29.8649 21.1947L33.3123 19.9539L37.3251 23.5223C37.0697 26.1349 36.147 28.6379 34.6455 30.7911ZM37.3361 20.5875L34.7841 18.3193L35.6487 14.8609C36.5595 16.5989 37.1491 18.5349 37.3361 20.5875ZM34.0053 12.3551L32.6303 17.8617L29.1455 19.1157L23.1021 14.8213V11.0813L28.4019 7.9859C30.5843 8.98636 32.5036 10.4815 34.0075 12.3529L34.0053 12.3551ZM16.2733 20.7811L21.9999 16.7353L27.6891 20.7767L25.5947 27.4999H18.4073L16.2733 20.7767V20.7811Z" fill="white"/>
</svg>
