<svg width="27" height="23" viewBox="0 0 27 23" fill="none" xmlns="http://www.w3.org/2000/svg">
<path d="M20.2542 18C16.802 18 15.4307 14.52 14.1044 11.155C12.8482 7.965 11.5469 4.66667 8.74679 4.66667C8.09298 4.70008 7.4654 4.90186 6.94402 5.24632C6.42264 5.59077 6.03104 6.0623 5.81912 6.60083L4 6.07C4.04891 5.945 5.21882 3 8.74679 3C12.9182 3 14.512 7.04583 15.9197 10.615C17.0791 13.5558 18.1733 16.3333 20.2542 16.3333C20.908 16.2999 21.5356 16.0981 22.0569 15.7537C22.5783 15.4092 22.9699 14.9377 23.1818 14.3992L25 14.93C24.9521 15.055 23.7821 18 20.2542 18Z" fill="black"/>
<path d="M1.92857 21.3571V12.3214H3.85714V10.6786H1.92857V0H0V21.3571C0 21.7929 0.203188 22.2107 0.564865 22.5188C0.926543 22.8269 1.41708 23 1.92857 23H27V21.3571H1.92857Z" fill="black"/>
<path d="M6 10H7.90909V12H6V10ZM9.81818 10H11.7273V12H9.81818V10ZM17.4545 10H19.3636V12H17.4545V10ZM21.2727 10H23.1818V12H21.2727V10ZM25.0909 10H27V12H25.0909V10Z" fill="black"/>
</svg>
