<svg width="273" height="324" viewBox="0 0 273 324" fill="none" xmlns="http://www.w3.org/2000/svg">
<path d="M61.58 153.06H68.99C70.33 153.06 71.54 153.28 72.62 153.72C73.72 154.16 74.65 154.82 75.41 155.7C76.19 156.56 76.79 157.65 77.21 158.97C77.63 160.27 77.84 161.79 77.84 163.53C77.84 165.27 77.63 166.8 77.21 168.12C76.79 169.42 76.19 170.51 75.41 171.39C74.65 172.25 73.72 172.9 72.62 173.34C71.54 173.78 70.33 174 68.99 174H61.58V153.06ZM68.99 171C70.55 171 71.81 170.51 72.77 169.53C73.73 168.55 74.21 167.11 74.21 165.21V161.85C74.21 159.95 73.73 158.51 72.77 157.53C71.81 156.55 70.55 156.06 68.99 156.06H64.97V171H68.99ZM90.1585 174.36C88.7985 174.36 87.5585 174.13 86.4385 173.67C85.3385 173.19 84.3885 172.5 83.5885 171.6C82.8085 170.68 82.1985 169.55 81.7585 168.21C81.3385 166.85 81.1285 165.29 81.1285 163.53C81.1285 161.77 81.3385 160.22 81.7585 158.88C82.1985 157.52 82.8085 156.39 83.5885 155.49C84.3885 154.57 85.3385 153.88 86.4385 153.42C87.5585 152.94 88.7985 152.7 90.1585 152.7C91.5185 152.7 92.7485 152.94 93.8485 153.42C94.9685 153.88 95.9185 154.57 96.6985 155.49C97.4985 156.39 98.1085 157.52 98.5285 158.88C98.9685 160.22 99.1885 161.77 99.1885 163.53C99.1885 165.29 98.9685 166.85 98.5285 168.21C98.1085 169.55 97.4985 170.68 96.6985 171.6C95.9185 172.5 94.9685 173.19 93.8485 173.67C92.7485 174.13 91.5185 174.36 90.1585 174.36ZM90.1585 171.33C90.9585 171.33 91.6885 171.19 92.3485 170.91C93.0285 170.63 93.5985 170.23 94.0585 169.71C94.5385 169.17 94.9085 168.52 95.1685 167.76C95.4285 167 95.5585 166.14 95.5585 165.18V161.88C95.5585 160.92 95.4285 160.06 95.1685 159.3C94.9085 158.54 94.5385 157.9 94.0585 157.38C93.5985 156.84 93.0285 156.43 92.3485 156.15C91.6885 155.87 90.9585 155.73 90.1585 155.73C89.3385 155.73 88.5985 155.87 87.9385 156.15C87.2785 156.43 86.7085 156.84 86.2285 157.38C85.7685 157.9 85.4085 158.54 85.1485 159.3C84.8885 160.06 84.7585 160.92 84.7585 161.88V165.18C84.7585 166.14 84.8885 167 85.1485 167.76C85.4085 168.52 85.7685 169.17 86.2285 169.71C86.7085 170.23 87.2785 170.63 87.9385 170.91C88.5985 171.19 89.3385 171.33 90.1585 171.33ZM119.436 157.98H119.286L117.636 161.37L113.046 169.74L108.456 161.37L106.806 157.98H106.656V174H103.416V153.06H107.436L113.046 163.71H113.226L118.836 153.06H122.676V174H119.436V157.98ZM127.85 174V153.06H141.26V156.06H131.24V161.88H140.33V164.88H131.24V171H141.26V174H127.85ZM151.903 174.36C150.143 174.36 148.643 174.04 147.403 173.4C146.183 172.76 145.133 171.9 144.253 170.82L146.593 168.63C147.333 169.53 148.143 170.21 149.023 170.67C149.923 171.13 150.943 171.36 152.083 171.36C153.423 171.36 154.433 171.06 155.113 170.46C155.793 169.86 156.133 169.05 156.133 168.03C156.133 167.21 155.893 166.56 155.413 166.08C154.933 165.6 154.083 165.24 152.863 165L151.003 164.67C148.963 164.29 147.433 163.62 146.413 162.66C145.393 161.7 144.883 160.38 144.883 158.7C144.883 157.78 145.053 156.95 145.393 156.21C145.753 155.45 146.243 154.82 146.863 154.32C147.503 153.8 148.273 153.4 149.173 153.12C150.073 152.84 151.083 152.7 152.203 152.7C153.783 152.7 155.153 152.98 156.313 153.54C157.473 154.08 158.463 154.87 159.283 155.91L156.913 158.01C156.373 157.31 155.713 156.75 154.933 156.33C154.153 155.91 153.183 155.7 152.023 155.7C150.823 155.7 149.893 155.94 149.233 156.42C148.573 156.9 148.243 157.6 148.243 158.52C148.243 159.4 148.513 160.06 149.053 160.5C149.593 160.92 150.433 161.24 151.573 161.46L153.433 161.85C155.533 162.25 157.063 162.93 158.023 163.89C159.003 164.85 159.493 166.17 159.493 167.85C159.493 168.83 159.323 169.72 158.983 170.52C158.643 171.32 158.143 172.01 157.483 172.59C156.843 173.15 156.053 173.59 155.113 173.91C154.173 174.21 153.103 174.36 151.903 174.36ZM170.834 156.06V174H167.444V156.06H161.204V153.06H177.074V156.06H170.834ZM179.303 174V171.24H182.153V155.82H179.303V153.06H188.423V155.82H185.543V171.24H188.423V174H179.303ZM200.544 174.36C197.804 174.36 195.654 173.44 194.094 171.6C192.534 169.74 191.754 167.05 191.754 163.53C191.754 161.77 191.954 160.22 192.354 158.88C192.754 157.54 193.334 156.41 194.094 155.49C194.854 154.57 195.774 153.88 196.854 153.42C197.954 152.94 199.184 152.7 200.544 152.7C202.364 152.7 203.884 153.1 205.104 153.9C206.344 154.7 207.314 155.88 208.014 157.44L205.164 159C204.804 158 204.244 157.21 203.484 156.63C202.744 156.03 201.764 155.73 200.544 155.73C198.924 155.73 197.654 156.28 196.734 157.38C195.814 158.48 195.354 160 195.354 161.94V165.12C195.354 167.06 195.814 168.58 196.734 169.68C197.654 170.78 198.924 171.33 200.544 171.33C201.804 171.33 202.824 171.01 203.604 170.37C204.404 169.71 204.994 168.87 205.374 167.85L208.104 169.5C207.404 171.02 206.424 172.21 205.164 173.07C203.904 173.93 202.364 174.36 200.544 174.36Z" fill="#0D155A"/>
<g filter="url(#filter0_d_102_38)">
<path d="M186.267 85.0313V84.7314C186.317 83.7818 186.367 82.8822 186.367 81.9325C186.369 70.4849 182.436 59.3848 175.227 50.4951C175.122 50.2795 174.968 50.0913 174.777 49.9453C169.417 43.5142 162.529 38.5308 154.746 35.4511L154.496 35.3511C142.866 30.8218 129.96 30.8218 118.33 35.3511L118.08 35.4511C110.296 38.5308 103.409 43.5142 98.0483 49.9453C97.8579 50.0913 97.704 50.2795 97.5987 50.4951C90.3899 59.3848 86.4566 70.4849 86.459 81.9325C86.459 82.8822 86.5089 83.7818 86.5589 84.7314V85.0313C87.0742 93.3916 89.6855 101.487 94.1519 108.572C94.2384 108.773 94.3564 108.958 94.5016 109.122C101.281 119.534 111.673 127.065 123.675 130.263H123.924C132.114 132.395 140.712 132.395 148.901 130.263H149.151C161.152 127.065 171.545 119.534 178.324 109.122C178.469 108.958 178.587 108.773 178.674 108.572C183.14 101.487 185.752 93.3916 186.267 85.0313ZM156.245 105.823L150.949 98.5759L157.943 77.0345L166.485 74.2856L182.221 85.731C181.646 92.8495 179.404 99.7326 175.677 105.823H156.245ZM116.581 105.823H97.1491C93.4214 99.7326 91.1796 92.8495 90.6052 85.731L106.341 74.2856L114.883 77.0345L121.876 98.5759L116.581 105.823ZM98.6477 55.793L103.643 71.2868L90.4553 80.883C90.6412 71.8922 93.4927 63.1595 98.6477 55.793V55.793ZM125.523 96.9266L118.829 76.1848L136.413 63.3899L153.997 76.1848L147.303 96.9266H125.523ZM182.37 80.883L169.183 71.2868L174.178 55.793C179.333 63.1595 182.185 71.8922 182.37 80.883V80.883ZM171.231 51.9445L165.236 70.4371L156.694 73.236L138.411 59.9413V50.9449L154.147 39.4995C160.726 42.2717 166.573 46.5315 171.231 51.9445ZM149.601 37.9001L136.413 47.4963L123.225 37.9001C131.825 35.301 141.001 35.301 149.601 37.9001V37.9001ZM118.679 39.4995L134.415 50.9449V59.9413L116.132 73.236L107.589 70.4371L101.595 51.9445C106.252 46.5315 112.1 42.2717 118.679 39.4995V39.4995ZM99.8966 109.821H116.182L121.227 125.315C112.763 122.335 105.35 116.951 99.8966 109.821V109.821ZM125.873 126.715L119.828 108.172L125.123 100.925H147.702L152.998 108.172L146.953 126.715C140.017 128.313 132.809 128.313 125.873 126.715V126.715ZM151.599 125.315L156.644 109.821H172.929C167.475 116.951 160.063 122.335 151.599 125.315V125.315Z" fill="#CC9C17"/>
</g>
<path d="M19.8525 202.167H3.20117C7.4185 256.766 54.2443 280.562 135.486 323.351C217.492 279.58 263.44 255.035 267.772 202.167H250.195C247.806 244.31 204.592 266.277 135.486 305.775C64.4471 266.456 22.7381 244.493 19.8525 202.167Z" fill="#2A55AA"/>
<path d="M18.0022 17.1528V115.21H0.425781V0.501465H272.397V115.21H254.821V17.1528H18.0022Z" fill="url(#paint0_linear_102_38)"/>
<line x1="113" y1="204.867" x2="157.403" y2="204.867" stroke="#CC9C17" stroke-width="2"/>
<line x1="113" y1="254.821" x2="157.403" y2="254.821" stroke="#CC9C17" stroke-width="2"/>
<path d="M88.72 234.268V220.308H90.98V232.268H96.66V234.268H88.72ZM98.9739 234.268V220.308H107.914V222.308H101.234V226.188H107.294V228.188H101.234V232.268H107.914V234.268H98.9739ZM119.549 234.268L118.289 230.488H113.069L111.849 234.268H109.549L114.309 220.308H117.149L121.909 234.268H119.549ZM115.729 222.388H115.629L113.609 228.548H117.729L115.729 222.388ZM132.622 232.148H132.542C132.395 232.828 131.995 233.395 131.342 233.848C130.702 234.288 129.849 234.508 128.782 234.508C127.955 234.508 127.189 234.355 126.482 234.048C125.775 233.728 125.162 233.268 124.642 232.668C124.135 232.055 123.735 231.301 123.442 230.408C123.162 229.501 123.022 228.461 123.022 227.288C123.022 226.128 123.169 225.101 123.462 224.208C123.755 223.301 124.169 222.541 124.702 221.928C125.235 221.315 125.875 220.855 126.622 220.548C127.369 220.228 128.202 220.068 129.122 220.068C130.375 220.068 131.435 220.348 132.302 220.908C133.169 221.455 133.842 222.221 134.322 223.208L132.482 224.288C132.215 223.635 131.802 223.108 131.242 222.708C130.682 222.295 129.975 222.088 129.122 222.088C128.015 222.088 127.122 222.441 126.442 223.148C125.775 223.855 125.442 224.855 125.442 226.148V228.428C125.442 229.721 125.775 230.721 126.442 231.428C127.122 232.135 128.015 232.488 129.122 232.488C129.562 232.488 129.982 232.435 130.382 232.328C130.782 232.208 131.129 232.041 131.422 231.828C131.729 231.601 131.969 231.328 132.142 231.008C132.329 230.675 132.422 230.288 132.422 229.848V228.768H129.542V226.828H134.602V234.268H132.622V232.148ZM139.883 220.308V228.908C139.883 230.095 140.11 230.988 140.563 231.588C141.017 232.188 141.79 232.488 142.883 232.488C143.977 232.488 144.75 232.188 145.203 231.588C145.657 230.988 145.883 230.095 145.883 228.908V220.308H148.103V228.548C148.103 229.575 148.01 230.461 147.823 231.208C147.637 231.955 147.337 232.575 146.923 233.068C146.51 233.548 145.97 233.908 145.303 234.148C144.65 234.388 143.843 234.508 142.883 234.508C141.923 234.508 141.11 234.388 140.443 234.148C139.79 233.908 139.257 233.548 138.843 233.068C138.43 232.575 138.13 231.955 137.943 231.208C137.757 230.461 137.663 229.575 137.663 228.548V220.308H139.883ZM151.454 234.268V220.308H160.394V222.308H153.714V226.188H159.774V228.188H153.714V232.268H160.394V234.268H151.454ZM167.49 234.508C166.317 234.508 165.317 234.295 164.49 233.868C163.677 233.441 162.977 232.868 162.39 232.148L163.95 230.688C164.443 231.288 164.983 231.741 165.57 232.048C166.17 232.355 166.85 232.508 167.61 232.508C168.503 232.508 169.177 232.308 169.63 231.908C170.083 231.508 170.31 230.968 170.31 230.288C170.31 229.741 170.15 229.308 169.83 228.988C169.51 228.668 168.943 228.428 168.13 228.268L166.89 228.048C165.53 227.795 164.51 227.348 163.83 226.708C163.15 226.068 162.81 225.188 162.81 224.068C162.81 223.455 162.923 222.901 163.15 222.408C163.39 221.901 163.717 221.481 164.13 221.148C164.557 220.801 165.07 220.535 165.67 220.348C166.27 220.161 166.943 220.068 167.69 220.068C168.743 220.068 169.657 220.255 170.43 220.628C171.203 220.988 171.863 221.515 172.41 222.208L170.83 223.608C170.47 223.141 170.03 222.768 169.51 222.488C168.99 222.208 168.343 222.068 167.57 222.068C166.77 222.068 166.15 222.228 165.71 222.548C165.27 222.868 165.05 223.335 165.05 223.948C165.05 224.535 165.23 224.975 165.59 225.268C165.95 225.548 166.51 225.761 167.27 225.908L168.51 226.168C169.91 226.435 170.93 226.888 171.57 227.528C172.223 228.168 172.55 229.048 172.55 230.168C172.55 230.821 172.437 231.415 172.21 231.948C171.983 232.481 171.65 232.941 171.21 233.328C170.783 233.701 170.257 233.995 169.63 234.208C169.003 234.408 168.29 234.508 167.49 234.508Z" fill="#0D155A"/>
<defs>
<filter id="filter0_d_102_38" x="82.459" y="31.9541" width="107.908" height="107.908" filterUnits="userSpaceOnUse" color-interpolation-filters="sRGB">
<feFlood flood-opacity="0" result="BackgroundImageFix"/>
<feColorMatrix in="SourceAlpha" type="matrix" values="0 0 0 0 0 0 0 0 0 0 0 0 0 0 0 0 0 0 127 0" result="hardAlpha"/>
<feOffset dy="4"/>
<feGaussianBlur stdDeviation="2"/>
<feComposite in2="hardAlpha" operator="out"/>
<feColorMatrix type="matrix" values="0 0 0 0 0 0 0 0 0 0 0 0 0 0 0 0 0 0 0.25 0"/>
<feBlend mode="normal" in2="BackgroundImageFix" result="effect1_dropShadow_102_38"/>
<feBlend mode="normal" in="SourceGraphic" in2="effect1_dropShadow_102_38" result="shape"/>
</filter>
<linearGradient id="paint0_linear_102_38" x1="136.411" y1="0.501465" x2="136.411" y2="115.21" gradientUnits="userSpaceOnUse">
<stop stop-color="#24336A"/>
<stop offset="1" stop-color="#2A51A3"/>
</linearGradient>
</defs>
</svg>
