<svg width="65" height="65" viewBox="0 0 65 65" fill="none" xmlns="http://www.w3.org/2000/svg">
<path fill-rule="evenodd" clip-rule="evenodd" d="M32.5 0.5C14.5492 0.5 0 14.828 0 32.5C0 50.172 14.5492 64.5 32.5 64.5C50.4481 64.5 65 50.172 65 32.5C65 14.828 50.4481 0.5 32.5 0.5ZM32.8792 51.2147C22.4033 51.2147 13.9208 42.8413 13.9208 32.5C13.9208 22.1587 22.4033 13.7853 32.8792 13.7853C37.9979 13.7853 42.2771 15.644 45.5596 18.6627L40.2133 23.9373V23.9267C38.2227 22.0547 35.6985 21.0947 32.8792 21.0947C26.6229 21.0947 21.5394 26.3107 21.5394 32.4893C21.5394 38.6627 26.6229 43.8947 32.8792 43.8947C38.5558 43.8947 42.4179 40.6893 43.2142 36.2893H32.8792V28.9907H50.7135C50.9519 30.244 51.0792 31.5507 51.0792 32.9213C51.0792 43.6147 43.829 51.2147 32.8792 51.2147Z" fill="white"/>
</svg>
