<svg width="43" height="43" viewBox="0 0 43 43" fill="none" xmlns="http://www.w3.org/2000/svg">
<circle cx="21.5" cy="21.5" r="21.5" fill="#81CEF0"/>
<path d="M23.3545 15.7153V33.1499H19.4551V15.7153H23.3545ZM19.1973 11.1392C19.1973 10.5483 19.3906 10.0596 19.7773 9.67285C20.1748 9.27539 20.7227 9.07666 21.4209 9.07666C22.1084 9.07666 22.6509 9.27539 23.0483 9.67285C23.4458 10.0596 23.6445 10.5483 23.6445 11.1392C23.6445 11.7192 23.4458 12.2026 23.0483 12.5894C22.6509 12.9761 22.1084 13.1694 21.4209 13.1694C20.7227 13.1694 20.1748 12.9761 19.7773 12.5894C19.3906 12.2026 19.1973 11.7192 19.1973 11.1392Z" fill="white"/>
</svg>
