<svg width="28" height="27" viewBox="0 0 28 27" fill="none" xmlns="http://www.w3.org/2000/svg">
<path d="M26.8188 12.9072L14.3761 0.287416C14.2865 0.196306 14.1801 0.124023 14.0629 0.0747044C13.9458 0.0253858 13.8202 0 13.6934 0C13.5665 0 13.441 0.0253858 13.3238 0.0747044C13.2067 0.124023 13.1003 0.196306 13.0107 0.287416L0.567914 12.9072C0.205416 13.2752 0 13.7749 0 14.2962C0 15.3785 0.866975 16.2584 1.93332 16.2584H3.24436L3.24436 25.2634C3.24436 25.8061 3.67634 26.2445 4.21102 26.2445H11.76V19.3766H15.1434V26.2445H23.1757C23.7104 26.2445 24.1424 25.8061 24.1424 25.2634V16.2584H25.4534C25.9669 16.2584 26.4593 16.053 26.8218 15.682C27.574 14.9155 27.574 13.6738 26.8188 12.9072Z" fill="white"/>
</svg>
