<svg width="273" height="324" viewBox="0 0 273 324" fill="none" xmlns="http://www.w3.org/2000/svg">
<path d="M15.68 179V176.24H18.53V160.82H15.68V158.06H24.8V160.82H21.92V176.24H24.8V179H15.68ZM34.7005 167.42L32.3905 162.98H32.3005V179H29.0605V158.06H32.8405L39.6805 169.64L41.9905 174.08H42.0805V158.06H45.3205V179H41.5405L34.7005 167.42ZM58.2465 161.06V179H54.8565V161.06H48.6165V158.06H64.4865V161.06H58.2465ZM67.7909 179V158.06H81.2009V161.06H71.1809V166.88H80.2709V169.88H71.1809V176H81.2009V179H67.7909ZM88.9641 179H85.5741V158.06H94.6041C96.4841 158.06 97.9641 158.63 99.0441 159.77C100.124 160.89 100.664 162.42 100.664 164.36C100.664 165.86 100.314 167.11 99.6141 168.11C98.9341 169.09 97.9241 169.78 96.5841 170.18L101.114 179H97.3341L93.1341 170.54H88.9641V179ZM94.3641 167.69C95.2241 167.69 95.8941 167.47 96.3741 167.03C96.8541 166.57 97.0941 165.92 97.0941 165.08V163.64C97.0941 162.8 96.8541 162.16 96.3741 161.72C95.8941 161.26 95.2241 161.03 94.3641 161.03H88.9641V167.69H94.3641ZM110.872 167.42L108.562 162.98H108.472V179H105.232V158.06H109.012L115.852 169.64L118.162 174.08H118.252V158.06H121.492V179H117.712L110.872 167.42ZM139.728 179L137.838 173.33H130.008L128.178 179H124.728L131.868 158.06H136.128L143.268 179H139.728ZM133.998 161.18H133.848L130.818 170.42H136.998L133.998 161.18ZM152.319 161.06V179H148.929V161.06H142.689V158.06H158.559V161.06H152.319ZM160.787 179V176.24H163.637V160.82H160.787V158.06H169.907V160.82H167.027V176.24H169.907V179H160.787ZM182.268 179.36C180.908 179.36 179.668 179.13 178.548 178.67C177.448 178.19 176.498 177.5 175.698 176.6C174.918 175.68 174.308 174.55 173.868 173.21C173.448 171.85 173.238 170.29 173.238 168.53C173.238 166.77 173.448 165.22 173.868 163.88C174.308 162.52 174.918 161.39 175.698 160.49C176.498 159.57 177.448 158.88 178.548 158.42C179.668 157.94 180.908 157.7 182.268 157.7C183.628 157.7 184.858 157.94 185.958 158.42C187.078 158.88 188.028 159.57 188.808 160.49C189.608 161.39 190.218 162.52 190.638 163.88C191.078 165.22 191.298 166.77 191.298 168.53C191.298 170.29 191.078 171.85 190.638 173.21C190.218 174.55 189.608 175.68 188.808 176.6C188.028 177.5 187.078 178.19 185.958 178.67C184.858 179.13 183.628 179.36 182.268 179.36ZM182.268 176.33C183.068 176.33 183.798 176.19 184.458 175.91C185.138 175.63 185.708 175.23 186.168 174.71C186.648 174.17 187.018 173.52 187.278 172.76C187.538 172 187.668 171.14 187.668 170.18V166.88C187.668 165.92 187.538 165.06 187.278 164.3C187.018 163.54 186.648 162.9 186.168 162.38C185.708 161.84 185.138 161.43 184.458 161.15C183.798 160.87 183.068 160.73 182.268 160.73C181.448 160.73 180.708 160.87 180.048 161.15C179.388 161.43 178.818 161.84 178.338 162.38C177.878 162.9 177.518 163.54 177.258 164.3C176.998 165.06 176.868 165.92 176.868 166.88V170.18C176.868 171.14 176.998 172 177.258 172.76C177.518 173.52 177.878 174.17 178.338 174.71C178.818 175.23 179.388 175.63 180.048 175.91C180.708 176.19 181.448 176.33 182.268 176.33ZM201.165 167.42L198.855 162.98H198.765V179H195.525V158.06H199.305L206.145 169.64L208.455 174.08H208.545V158.06H211.785V179H208.005L201.165 167.42ZM230.021 179L228.131 173.33H220.301L218.471 179H215.021L222.161 158.06H226.421L233.561 179H230.021ZM224.291 161.18H224.141L221.111 170.42H227.291L224.291 161.18ZM236.805 179V158.06H240.195V176H248.715V179H236.805Z" fill="#0D155A"/>
<g filter="url(#filter0_d_102_39)">
<path d="M186.415 85.0313V84.7314C186.465 83.7818 186.515 82.8822 186.515 81.9325C186.518 70.4849 182.584 59.3848 175.375 50.4951C175.27 50.2795 175.116 50.0913 174.926 49.9453C169.565 43.5142 162.678 38.5308 154.894 35.4511L154.645 35.3511C143.014 30.8218 130.109 30.8218 118.478 35.3511L118.228 35.4511C110.445 38.5308 103.558 43.5142 98.1967 49.9453C98.0063 50.0913 97.8524 50.2795 97.7471 50.4951C90.5383 59.3848 86.605 70.4849 86.6074 81.9325C86.6074 82.8822 86.6574 83.7818 86.7073 84.7314V85.0313C87.2227 93.3916 89.834 101.487 94.3003 108.572C94.3868 108.773 94.5049 108.958 94.65 109.122C101.429 119.534 111.822 127.065 123.823 130.263H124.073C132.262 132.395 140.86 132.395 149.05 130.263H149.3C161.301 127.065 171.693 119.534 178.473 109.122C178.618 108.958 178.736 108.773 178.822 108.572C183.289 101.487 185.9 93.3916 186.415 85.0313ZM156.393 105.823L151.098 98.5759L158.091 77.0345L166.634 74.2856L182.369 85.731C181.795 92.8495 179.553 99.7326 175.825 105.823H156.393ZM116.73 105.823H97.2976C93.5699 99.7326 91.328 92.8495 90.7536 85.731L106.489 74.2856L115.031 77.0345L122.025 98.5759L116.73 105.823ZM98.7962 55.793L103.792 71.2868L90.6037 80.883C90.7897 71.8922 93.6411 63.1595 98.7962 55.793V55.793ZM125.671 96.9266L118.978 76.1848L136.561 63.3899L154.145 76.1848L147.451 96.9266H125.671ZM182.519 80.883L169.331 71.2868L174.326 55.793C179.482 63.1595 182.333 71.8922 182.519 80.883V80.883ZM171.379 51.9445L165.385 70.4371L156.843 73.236L138.559 59.9413V50.9449L154.295 39.4995C160.874 42.2717 166.722 46.5315 171.379 51.9445ZM149.749 37.9001L136.561 47.4963L123.373 37.9001C131.973 35.301 141.149 35.301 149.749 37.9001V37.9001ZM118.828 39.4995L134.563 50.9449V59.9413L116.28 73.236L107.738 70.4371L101.743 51.9445C106.401 46.5315 112.249 42.2717 118.828 39.4995V39.4995ZM100.045 109.821H116.33L121.375 125.315C112.911 122.335 105.499 116.951 100.045 109.821V109.821ZM126.021 126.715L119.977 108.172L125.272 100.925H147.851L153.146 108.172L147.102 126.715C140.166 128.313 132.957 128.313 126.021 126.715V126.715ZM151.747 125.315L156.793 109.821H173.078C167.624 116.951 160.211 122.335 151.747 125.315V125.315Z" fill="#CC9C17"/>
</g>
<path d="M20.0029 202.167H3.35156C7.56889 256.766 54.3947 280.562 135.637 323.351C217.642 279.58 263.591 255.035 267.922 202.167H250.346C247.957 244.31 204.742 266.277 135.637 305.775C64.5975 266.456 22.8885 244.493 20.0029 202.167Z" fill="#2A55AA"/>
<path d="M18.1525 17.1528V115.21H0.576172V0.501465H272.547V115.21H254.971V17.1528H18.1525Z" fill="url(#paint0_linear_102_39)"/>
<line x1="114.359" y1="204.867" x2="158.763" y2="204.867" stroke="#CC9C17" stroke-width="2"/>
<line x1="114.359" y1="254.821" x2="158.763" y2="254.821" stroke="#CC9C17" stroke-width="2"/>
<path d="M69.9 222.04V234H67.64V222.04H63.48V220.04H74.06V222.04H69.9ZM81.2138 234.24C80.3071 234.24 79.4804 234.087 78.7338 233.78C78.0004 233.46 77.3671 233 76.8338 232.4C76.3138 231.787 75.9071 231.033 75.6138 230.14C75.3338 229.233 75.1938 228.193 75.1938 227.02C75.1938 225.847 75.3338 224.813 75.6138 223.92C75.9071 223.013 76.3138 222.26 76.8338 221.66C77.3671 221.047 78.0004 220.587 78.7338 220.28C79.4804 219.96 80.3071 219.8 81.2138 219.8C82.1204 219.8 82.9404 219.96 83.6738 220.28C84.4204 220.587 85.0538 221.047 85.5738 221.66C86.1071 222.26 86.5138 223.013 86.7938 223.92C87.0871 224.813 87.2338 225.847 87.2338 227.02C87.2338 228.193 87.0871 229.233 86.7938 230.14C86.5138 231.033 86.1071 231.787 85.5738 232.4C85.0538 233 84.4204 233.46 83.6738 233.78C82.9404 234.087 82.1204 234.24 81.2138 234.24ZM81.2138 232.22C81.7471 232.22 82.2338 232.127 82.6738 231.94C83.1271 231.753 83.5071 231.487 83.8138 231.14C84.1338 230.78 84.3804 230.347 84.5538 229.84C84.7271 229.333 84.8138 228.76 84.8138 228.12V225.92C84.8138 225.28 84.7271 224.707 84.5538 224.2C84.3804 223.693 84.1338 223.267 83.8138 222.92C83.5071 222.56 83.1271 222.287 82.6738 222.1C82.2338 221.913 81.7471 221.82 81.2138 221.82C80.6671 221.82 80.1738 221.913 79.7338 222.1C79.2938 222.287 78.9138 222.56 78.5938 222.92C78.2871 223.267 78.0471 223.693 77.8738 224.2C77.7004 224.707 77.6138 225.28 77.6138 225.92V228.12C77.6138 228.76 77.7004 229.333 77.8738 229.84C78.0471 230.347 78.2871 230.78 78.5938 231.14C78.9138 231.487 79.2938 231.753 79.7338 231.94C80.1738 232.127 80.6671 232.22 81.2138 232.22ZM92.192 220.04V228.64C92.192 229.827 92.4187 230.72 92.872 231.32C93.3254 231.92 94.0987 232.22 95.192 232.22C96.2854 232.22 97.0587 231.92 97.512 231.32C97.9654 230.72 98.192 229.827 98.192 228.64V220.04H100.412V228.28C100.412 229.307 100.319 230.193 100.132 230.94C99.9454 231.687 99.6454 232.307 99.232 232.8C98.8187 233.28 98.2787 233.64 97.612 233.88C96.9587 234.12 96.152 234.24 95.192 234.24C94.232 234.24 93.4187 234.12 92.752 233.88C92.0987 233.64 91.5654 233.28 91.152 232.8C90.7387 232.307 90.4387 231.687 90.252 230.94C90.0654 230.193 89.972 229.307 89.972 228.28V220.04H92.192ZM106.023 234H103.763V220.04H109.783C111.036 220.04 112.023 220.42 112.743 221.18C113.463 221.927 113.823 222.947 113.823 224.24C113.823 225.24 113.59 226.073 113.123 226.74C112.67 227.393 111.996 227.853 111.103 228.12L114.123 234H111.603L108.803 228.36H106.023V234ZM109.623 226.46C110.196 226.46 110.643 226.313 110.963 226.02C111.283 225.713 111.443 225.28 111.443 224.72V223.76C111.443 223.2 111.283 222.773 110.963 222.48C110.643 222.173 110.196 222.02 109.623 222.02H106.023V226.46H109.623ZM120.628 226.28L119.088 223.32H119.028V234H116.868V220.04H119.388L123.948 227.76L125.488 230.72H125.548V220.04H127.708V234H125.188L120.628 226.28ZM139.866 234L138.606 230.22H133.386L132.166 234H129.866L134.626 220.04H137.466L142.226 234H139.866ZM136.046 222.12H135.946L133.926 228.28H138.046L136.046 222.12ZM155.068 223.32H154.968L153.868 225.58L150.808 231.16L147.748 225.58L146.648 223.32H146.548V234H144.388V220.04H147.068L150.808 227.14H150.928L154.668 220.04H157.228V234H155.068V223.32ZM160.677 234V220.04H169.617V222.04H162.937V225.92H168.997V227.92H162.937V232H169.617V234H160.677ZM176.293 226.28L174.753 223.32H174.693V234H172.533V220.04H175.053L179.613 227.76L181.153 230.72H181.213V220.04H183.373V234H180.853L176.293 226.28ZM191.99 222.04V234H189.73V222.04H185.57V220.04H196.15V222.04H191.99ZM202.318 234.24C201.145 234.24 200.145 234.027 199.318 233.6C198.505 233.173 197.805 232.6 197.218 231.88L198.778 230.42C199.271 231.02 199.811 231.473 200.398 231.78C200.998 232.087 201.678 232.24 202.438 232.24C203.331 232.24 204.005 232.04 204.458 231.64C204.911 231.24 205.138 230.7 205.138 230.02C205.138 229.473 204.978 229.04 204.658 228.72C204.338 228.4 203.771 228.16 202.958 228L201.718 227.78C200.358 227.527 199.338 227.08 198.658 226.44C197.978 225.8 197.638 224.92 197.638 223.8C197.638 223.187 197.751 222.633 197.978 222.14C198.218 221.633 198.545 221.213 198.958 220.88C199.385 220.533 199.898 220.267 200.498 220.08C201.098 219.893 201.771 219.8 202.518 219.8C203.571 219.8 204.485 219.987 205.258 220.36C206.031 220.72 206.691 221.247 207.238 221.94L205.658 223.34C205.298 222.873 204.858 222.5 204.338 222.22C203.818 221.94 203.171 221.8 202.398 221.8C201.598 221.8 200.978 221.96 200.538 222.28C200.098 222.6 199.878 223.067 199.878 223.68C199.878 224.267 200.058 224.707 200.418 225C200.778 225.28 201.338 225.493 202.098 225.64L203.338 225.9C204.738 226.167 205.758 226.62 206.398 227.26C207.051 227.9 207.378 228.78 207.378 229.9C207.378 230.553 207.265 231.147 207.038 231.68C206.811 232.213 206.478 232.673 206.038 233.06C205.611 233.433 205.085 233.727 204.458 233.94C203.831 234.14 203.118 234.24 202.318 234.24Z" fill="#0D155A"/>
<defs>
<filter id="filter0_d_102_39" x="82.6074" y="31.9541" width="107.908" height="107.908" filterUnits="userSpaceOnUse" color-interpolation-filters="sRGB">
<feFlood flood-opacity="0" result="BackgroundImageFix"/>
<feColorMatrix in="SourceAlpha" type="matrix" values="0 0 0 0 0 0 0 0 0 0 0 0 0 0 0 0 0 0 127 0" result="hardAlpha"/>
<feOffset dy="4"/>
<feGaussianBlur stdDeviation="2"/>
<feComposite in2="hardAlpha" operator="out"/>
<feColorMatrix type="matrix" values="0 0 0 0 0 0 0 0 0 0 0 0 0 0 0 0 0 0 0.25 0"/>
<feBlend mode="normal" in2="BackgroundImageFix" result="effect1_dropShadow_102_39"/>
<feBlend mode="normal" in="SourceGraphic" in2="effect1_dropShadow_102_39" result="shape"/>
</filter>
<linearGradient id="paint0_linear_102_39" x1="136.562" y1="0.501465" x2="136.562" y2="115.21" gradientUnits="userSpaceOnUse">
<stop stop-color="#24336A"/>
<stop offset="1" stop-color="#2A51A3"/>
</linearGradient>
</defs>
</svg>
