<svg width="273" height="324" viewBox="0 0 273 324" fill="none" xmlns="http://www.w3.org/2000/svg">
<path d="M62.58 185V164.06H71.58C73.52 164.06 75.02 164.63 76.08 165.77C77.14 166.91 77.67 168.44 77.67 170.36C77.67 172.28 77.14 173.81 76.08 174.95C75.02 176.09 73.52 176.66 71.58 176.66H65.97V185H62.58ZM65.97 173.69H71.37C72.23 173.69 72.9 173.47 73.38 173.03C73.86 172.57 74.1 171.92 74.1 171.08V169.64C74.1 168.8 73.86 168.16 73.38 167.72C72.9 167.26 72.23 167.03 71.37 167.03H65.97V173.69ZM84.7786 185H81.3886V164.06H90.4186C92.2986 164.06 93.7786 164.63 94.8586 165.77C95.9386 166.89 96.4786 168.42 96.4786 170.36C96.4786 171.86 96.1286 173.11 95.4286 174.11C94.7486 175.09 93.7386 175.78 92.3986 176.18L96.9286 185H93.1486L88.9486 176.54H84.7786V185ZM90.1786 173.69C91.0386 173.69 91.7086 173.47 92.1886 173.03C92.6686 172.57 92.9086 171.92 92.9086 171.08V169.64C92.9086 168.8 92.6686 168.16 92.1886 167.72C91.7086 167.26 91.0386 167.03 90.1786 167.03H84.7786V173.69H90.1786ZM101.047 185V164.06H114.457V167.06H104.437V172.88H113.527V175.88H104.437V182H114.457V185H101.047ZM134.85 168.98H134.7L133.05 172.37L128.46 180.74L123.87 172.37L122.22 168.98H122.07V185H118.83V164.06H122.85L128.46 174.71H128.64L134.25 164.06H138.09V185H134.85V168.98ZM142.364 185V182.24H145.214V166.82H142.364V164.06H151.484V166.82H148.604V182.24H151.484V185H142.364ZM155.744 185V164.06H169.154V167.06H159.134V172.88H168.224V175.88H159.134V182H169.154V185H155.744ZM176.917 185H173.527V164.06H182.557C184.437 164.06 185.917 164.63 186.997 165.77C188.077 166.89 188.617 168.42 188.617 170.36C188.617 171.86 188.267 173.11 187.567 174.11C186.887 175.09 185.877 175.78 184.537 176.18L189.067 185H185.287L181.087 176.54H176.917V185ZM182.317 173.69C183.177 173.69 183.847 173.47 184.327 173.03C184.807 172.57 185.047 171.92 185.047 171.08V169.64C185.047 168.8 184.807 168.16 184.327 167.72C183.847 167.26 183.177 167.03 182.317 167.03H176.917V173.69H182.317Z" fill="#0D155A"/>
<g filter="url(#filter0_d_144_37)">
<path d="M186.341 85.0313V84.7314C186.391 83.7818 186.441 82.8822 186.441 81.9325C186.443 70.4849 182.51 59.3848 175.301 50.4951C175.196 50.2795 175.042 50.0913 174.852 49.9453C169.491 43.5142 162.604 38.5308 154.82 35.4511L154.57 35.3511C142.94 30.8218 130.034 30.8218 118.404 35.3511L118.154 35.4511C110.371 38.5308 103.483 43.5142 98.1225 49.9453C97.9321 50.0913 97.7782 50.2795 97.6729 50.4951C90.4641 59.3848 86.5308 70.4849 86.5332 81.9325C86.5332 82.8822 86.5832 83.7818 86.6331 84.7314V85.0313C87.1485 93.3916 89.7598 101.487 94.2261 108.572C94.3126 108.773 94.4307 108.958 94.5758 109.122C101.355 119.534 111.747 127.065 123.749 130.263H123.999C132.188 132.395 140.786 132.395 148.976 130.263H149.225C161.227 127.065 171.619 119.534 178.398 109.122C178.544 108.958 178.662 108.773 178.748 108.572C183.214 101.487 185.826 93.3916 186.341 85.0313ZM156.319 105.823L151.024 98.5759L158.017 77.0345L166.559 74.2856L182.295 85.731C181.72 92.8495 179.479 99.7326 175.751 105.823H156.319ZM116.655 105.823H97.2233C93.4957 99.7326 91.2538 92.8495 90.6794 85.731L106.415 74.2856L114.957 77.0345L121.951 98.5759L116.655 105.823ZM98.722 55.793L103.717 71.2868L90.5295 80.883C90.7155 71.8922 93.5669 63.1595 98.722 55.793ZM125.597 96.9266L118.903 76.1848L136.487 63.3899L154.071 76.1848L147.377 96.9266H125.597ZM182.445 80.883L169.257 71.2868L174.252 55.793C179.407 63.1595 182.259 71.8922 182.445 80.883ZM171.305 51.9445L165.31 70.4371L156.768 73.236L138.485 59.9413V50.9449L154.221 39.4995C160.8 42.2717 166.648 46.5315 171.305 51.9445ZM149.675 37.9001L136.487 47.4963L123.299 37.9001C131.899 35.301 141.075 35.301 149.675 37.9001ZM118.753 39.4995L134.489 50.9449V59.9413L116.206 73.236L107.664 70.4371L101.669 51.9445C106.327 46.5315 112.174 42.2717 118.753 39.4995ZM99.9708 109.821H116.256L121.301 125.315C112.837 122.335 105.425 116.951 99.9708 109.821ZM125.947 126.715L119.902 108.172L125.198 100.925H147.777L153.072 108.172L147.027 126.715C140.091 128.313 132.883 128.313 125.947 126.715ZM151.673 125.315L156.718 109.821H173.003C167.55 116.951 160.137 122.335 151.673 125.315Z" fill="#CC9C17"/>
</g>
<path d="M19.9286 202.167H3.27734C7.49467 256.766 54.3205 280.562 135.563 323.351C217.568 279.58 263.516 255.035 267.848 202.167H250.272C247.882 244.31 204.668 266.277 135.563 305.775C64.5233 266.456 22.8143 244.493 19.9286 202.167Z" fill="#2A55AA"/>
<path d="M18.0783 17.1528V115.21H0.501953V0.501465H272.473V115.21H254.897V17.1528H18.0783Z" fill="url(#paint0_linear_144_37)"/>
<line x1="114.285" y1="204.867" x2="158.689" y2="204.867" stroke="#CC9C17" stroke-width="2"/>
<line x1="114.285" y1="254.821" x2="158.689" y2="254.821" stroke="#CC9C17" stroke-width="2"/>
<path d="M98.72 236V222.04H100.98V234H106.66V236H98.72ZM108.974 236V222.04H117.914V224.04H111.234V227.92H117.294V229.92H111.234V234H117.914V236H108.974ZM129.549 236L128.289 232.22H123.069L121.849 236H119.549L124.309 222.04H127.149L131.909 236H129.549ZM125.729 224.12H125.629L123.609 230.28H127.729L125.729 224.12ZM142.622 233.88H142.542C142.395 234.56 141.995 235.127 141.342 235.58C140.702 236.02 139.849 236.24 138.782 236.24C137.955 236.24 137.189 236.087 136.482 235.78C135.775 235.46 135.162 235 134.642 234.4C134.135 233.787 133.735 233.033 133.442 232.14C133.162 231.233 133.022 230.193 133.022 229.02C133.022 227.86 133.169 226.833 133.462 225.94C133.755 225.033 134.169 224.273 134.702 223.66C135.235 223.047 135.875 222.587 136.622 222.28C137.369 221.96 138.202 221.8 139.122 221.8C140.375 221.8 141.435 222.08 142.302 222.64C143.169 223.187 143.842 223.953 144.322 224.94L142.482 226.02C142.215 225.367 141.802 224.84 141.242 224.44C140.682 224.027 139.975 223.82 139.122 223.82C138.015 223.82 137.122 224.173 136.442 224.88C135.775 225.587 135.442 226.587 135.442 227.88V230.16C135.442 231.453 135.775 232.453 136.442 233.16C137.122 233.867 138.015 234.22 139.122 234.22C139.562 234.22 139.982 234.167 140.382 234.06C140.782 233.94 141.129 233.773 141.422 233.56C141.729 233.333 141.969 233.06 142.142 232.74C142.329 232.407 142.422 232.02 142.422 231.58V230.5H139.542V228.56H144.602V236H142.622V233.88ZM149.883 222.04V230.64C149.883 231.827 150.11 232.72 150.563 233.32C151.017 233.92 151.79 234.22 152.883 234.22C153.977 234.22 154.75 233.92 155.203 233.32C155.657 232.72 155.883 231.827 155.883 230.64V222.04H158.103V230.28C158.103 231.307 158.01 232.193 157.823 232.94C157.637 233.687 157.337 234.307 156.923 234.8C156.51 235.28 155.97 235.64 155.303 235.88C154.65 236.12 153.843 236.24 152.883 236.24C151.923 236.24 151.11 236.12 150.443 235.88C149.79 235.64 149.257 235.28 148.843 234.8C148.43 234.307 148.13 233.687 147.943 232.94C147.757 232.193 147.663 231.307 147.663 230.28V222.04H149.883ZM161.454 236V222.04H170.394V224.04H163.714V227.92H169.774V229.92H163.714V234H170.394V236H161.454Z" fill="#0D155A"/>
<defs>
<filter id="filter0_d_144_37" x="82.5332" y="31.9541" width="107.908" height="107.908" filterUnits="userSpaceOnUse" color-interpolation-filters="sRGB">
<feFlood flood-opacity="0" result="BackgroundImageFix"/>
<feColorMatrix in="SourceAlpha" type="matrix" values="0 0 0 0 0 0 0 0 0 0 0 0 0 0 0 0 0 0 127 0" result="hardAlpha"/>
<feOffset dy="4"/>
<feGaussianBlur stdDeviation="2"/>
<feComposite in2="hardAlpha" operator="out"/>
<feColorMatrix type="matrix" values="0 0 0 0 0 0 0 0 0 0 0 0 0 0 0 0 0 0 0.25 0"/>
<feBlend mode="normal" in2="BackgroundImageFix" result="effect1_dropShadow_144_37"/>
<feBlend mode="normal" in="SourceGraphic" in2="effect1_dropShadow_144_37" result="shape"/>
</filter>
<linearGradient id="paint0_linear_144_37" x1="136.488" y1="0.501465" x2="136.488" y2="115.21" gradientUnits="userSpaceOnUse">
<stop stop-color="#24336A"/>
<stop offset="1" stop-color="#2A51A3"/>
</linearGradient>
</defs>
</svg>
