<svg width="30" height="30" viewBox="0 0 30 30" fill="none" xmlns="http://www.w3.org/2000/svg">
<path d="M29.6 12.7202L26.25 11.7202C26.0184 10.9115 25.6999 10.1302 25.3 9.39015L26.94 6.32015C27.0015 6.20427 27.0241 6.07164 27.0043 5.94193C26.9844 5.81223 26.9233 5.69237 26.83 5.60015L24.44 3.20015C24.3478 3.10682 24.2279 3.04571 24.0982 3.0259C23.9685 3.00608 23.8359 3.02862 23.72 3.09015L20.67 4.72015C19.9226 4.30081 19.1311 3.96544 18.31 3.72015L17.31 0.410153C17.2677 0.288169 17.1878 0.182752 17.0818 0.109075C16.9757 0.0353978 16.8491 -0.00273924 16.72 0.000153169H13.34C13.2101 0.000757742 13.0839 0.0427877 12.9795 0.120126C12.8752 0.197465 12.7983 0.306076 12.76 0.430153L11.76 3.73015C10.932 3.97413 10.1338 4.30953 9.38 4.73015L6.38 3.11015C6.26412 3.04862 6.13148 3.02608 6.00178 3.0459C5.87208 3.06571 5.75222 3.12682 5.66 3.22015L3.23 5.59015C3.13667 5.68237 3.07556 5.80223 3.05575 5.93193C3.03593 6.06164 3.05846 6.19427 3.12 6.31015L4.74 9.31015C4.32006 10.0607 3.98467 10.8556 3.74 11.6802L0.43 12.6802C0.305923 12.7185 0.197312 12.7954 0.119973 12.8997C0.0426345 13.004 0.000604574 13.1303 0 13.2602V16.6402C0.000604574 16.77 0.0426345 16.8963 0.119973 17.0006C0.197312 17.1049 0.305923 17.1818 0.43 17.2202L3.76 18.2202C4.00735 19.031 4.34268 19.8123 4.76 20.5502L3.12 23.6902C3.05846 23.806 3.03593 23.9387 3.05575 24.0684C3.07556 24.1981 3.13667 24.3179 3.23 24.4102L5.62 26.8002C5.71222 26.8935 5.83208 26.9546 5.96178 26.9744C6.09148 26.9942 6.22412 26.9717 6.34 26.9102L9.43 25.2602C10.161 25.6546 10.932 25.9697 11.73 26.2002L12.73 29.5702C12.7683 29.6942 12.8452 29.8028 12.9495 29.8802C13.0539 29.9575 13.1801 29.9995 13.31 30.0002H16.69C16.8199 29.9995 16.9461 29.9575 17.0505 29.8802C17.1548 29.8028 17.2317 29.6942 17.27 29.5702L18.27 26.1902C19.0612 25.9585 19.8255 25.6434 20.55 25.2502L23.66 26.9102C23.7759 26.9717 23.9085 26.9942 24.0382 26.9744C24.1679 26.9546 24.2878 26.8935 24.38 26.8002L26.77 24.4102C26.8633 24.3179 26.9244 24.1981 26.9443 24.0684C26.9641 23.9387 26.9415 23.806 26.88 23.6902L25.22 20.5902C25.6174 19.8628 25.9358 19.0952 26.17 18.3002L29.54 17.3002C29.6641 17.2618 29.7727 17.1849 29.85 17.0806C29.9274 16.9763 29.9694 16.85 29.97 16.7202V13.3102C29.9759 13.1858 29.9436 13.0626 29.8775 12.9572C29.8113 12.8517 29.7145 12.769 29.6 12.7202ZM15.03 20.5002C13.9422 20.5002 12.8788 20.1776 11.9744 19.5732C11.0699 18.9689 10.3649 18.1099 9.94866 17.1049C9.53238 16.0999 9.42346 14.9941 9.63568 13.9272C9.8479 12.8603 10.3717 11.8803 11.1409 11.1111C11.9101 10.3419 12.8901 9.81805 13.957 9.60583C15.0239 9.39362 16.1298 9.50253 17.1348 9.91882C18.1398 10.3351 18.9987 11.04 19.6031 11.9445C20.2074 12.849 20.53 13.9124 20.53 15.0002C20.53 16.4588 19.9505 17.8578 18.9191 18.8892C17.8876 19.9207 16.4887 20.5002 15.03 20.5002Z" fill="black"/>
</svg>
