<svg width="43" height="38" viewBox="0 0 43 38" fill="none" xmlns="http://www.w3.org/2000/svg">
<path d="M5.37484 12.6668L6.62901 12.6668L6.71859 12.6193C10.499 12.4134 13.6523 11.3526 15.1753 9.86426L17.9165 11.0834C18.0061 11.2418 18.1136 11.3843 18.2032 11.5268C16.9311 12.4926 16.1248 13.6959 16.1248 15.0418C16.1248 15.5643 16.2861 16.0551 16.5011 16.5459L19.8515 13.5851C20.2457 13.9809 20.6578 14.3609 21.1057 14.7093L17.4686 17.9234C17.8448 18.3193 18.2748 18.6676 18.8123 19.0001L22.5211 15.6909C23.0407 16.0076 23.5603 16.2768 24.0978 16.5459L20.4607 19.7918C21.0519 19.9976 21.6969 20.1718 22.3957 20.2984L25.8178 17.2743C26.4269 17.4959 27.0361 17.7018 27.6632 17.8759L24.6173 20.5834L25.0832 20.5834C27.7707 20.5834 30.0998 19.8551 31.7482 18.7151C33.2173 18.9209 34.6148 19.0001 35.8332 19.0001C39.4165 19.0001 39.4165 23.7501 39.4165 23.7501C39.4165 25.5076 37.8219 26.9168 35.8332 26.9168L35.8332 28.5001C35.8332 29.3709 35.0269 30.0834 34.0415 30.0834C33.0561 30.0834 32.2498 29.3709 32.2498 28.5001L32.2498 26.9168L30.4582 26.9168L30.4582 28.5001C30.4582 29.3709 29.6519 30.0834 28.6665 30.0834C27.6811 30.0834 26.8748 29.3709 26.8748 28.5001L26.8748 26.9168L25.0832 26.9168L25.0832 28.5001C25.0832 29.3709 24.2769 30.0834 23.2915 30.0834C22.3061 30.0834 21.4998 29.3709 21.4998 28.5001L21.4998 26.9168L16.1248 26.9168L16.1248 28.5001C16.1248 29.3709 15.3186 30.0834 14.3332 30.0834C13.3478 30.0834 12.5415 29.3709 12.5415 28.5001L12.5415 26.9168L10.7498 26.9168L10.7498 28.5001C10.7498 29.3709 9.94359 30.0834 8.95817 30.0834C7.97275 30.0834 7.1665 29.3709 7.1665 28.5001L7.1665 26.9168L5.37484 26.9168C5.37484 26.9168 3.58317 26.9168 3.58317 19.7918C3.58317 14.2501 5.37484 12.6668 5.37484 12.6668Z" fill="white"/>
</svg>
