<svg width="27" height="23" viewBox="0 0 27 23" fill="none" xmlns="http://www.w3.org/2000/svg">
<path d="M0 11.5C0 5.14871 6.04414 0 13.5 0C20.9559 0 27 5.14871 27 11.5C27 17.8513 20.9559 23 13.5 23C6.04414 23 0 17.8513 0 11.5ZM12.8356 1.65929C12.8472 1.79743 12.8123 1.93553 12.7349 2.05733C12.6575 2.17913 12.5409 2.27957 12.3988 2.34682L8.78946 4.05457C8.71574 4.08947 8.63696 4.11599 8.55514 4.13343L8.18196 4.21311L8.39025 5.45429L11.7604 6.02929C11.9486 6.06073 12.1213 6.13973 12.2561 6.256L16.3929 4.49321V2.97111C16.3928 2.77531 16.4749 2.58594 16.6243 2.43714C16.7737 2.28833 16.9806 2.18989 17.2077 2.15954C15.8016 1.75496 14.3172 1.58484 12.8356 1.65846V1.65929ZM5.57454 4.31825C3.69598 5.81933 2.46049 7.81234 2.06454 9.98036L5.11843 8.68004C5.14083 8.63533 5.16794 8.59244 5.19943 8.55189L7.3575 5.79682C7.48643 5.63198 7.68095 5.51237 7.90521 5.46004L7.71236 4.31332L6.52629 4.5655C6.35643 4.60265 6.17785 4.59923 6.01013 4.55562C5.84241 4.512 5.69203 4.42988 5.5755 4.31825H5.57454ZM1.99125 10.4707C1.94979 10.8075 1.92857 11.1501 1.92857 11.4959V11.5041C1.92857 12.6245 2.14939 13.7023 2.55439 14.706L5.16761 17.1802C5.25334 17.0922 5.35978 17.0206 5.48004 16.9699L7.21382 16.2306C7.30371 16.1926 7.40002 16.1669 7.49925 16.1542L7.89268 12.1366C7.64454 12.1034 7.4214 11.9891 7.27071 11.8179L5.23125 9.50064C5.14377 9.40166 5.08377 9.28708 5.05575 9.1655L1.99125 10.4716V10.4707ZM4.96607 17.6032L3.11271 15.8486C3.66528 16.8046 4.39568 17.678 5.27561 18.4353C5.1689 18.2485 5.07771 18.0555 5.00271 17.8579C4.97165 17.7757 4.95921 17.6893 4.96607 17.6032ZM13.5 21.3571C15.9744 21.3571 18.2674 20.6951 20.1488 19.5681L20.386 17.9556C20.2751 17.968 20.1625 17.9638 20.0533 17.9433L17.1479 17.3929C16.9467 17.3549 16.7651 17.2627 16.6301 17.1301L11.9726 18.9619C11.9712 18.9728 11.9696 18.9838 11.9678 18.9947L11.7161 20.4979C11.6958 20.6162 11.6466 20.7279 11.5753 20.8265C11.9986 21.0286 12.4422 21.1994 12.8867 21.344C13.0892 21.3522 13.2936 21.3571 13.5 21.3571ZM20.9009 17.7576L20.6849 19.228C22.7487 17.8363 24.1939 15.8869 24.7821 13.7014L23.3714 14.3019C23.3517 14.3449 23.3279 14.3864 23.3 14.4259L21.0899 17.5638C21.039 17.6363 20.9752 17.7017 20.9009 17.7576ZM23.4138 13.8246L24.9017 13.1913C25.0136 12.641 25.0714 12.0766 25.0714 11.5C25.0714 9.34211 24.2576 7.34604 22.8767 5.72289C22.8525 5.90814 22.7549 6.08082 22.6 6.21246L21.7466 6.93943C21.6526 7.01949 21.5401 7.08213 21.4163 7.1234C21.2925 7.16468 21.1601 7.1837 21.0272 7.17929L21.4004 11.4055C21.4993 11.4612 21.5852 11.5319 21.654 11.6142L23.2576 13.5265C23.3347 13.6168 23.3868 13.7195 23.4138 13.8246ZM8.38061 12.0947L7.97946 16.1953C8.05008 16.2175 8.1174 16.2468 8.18004 16.2824L11.5483 18.1946C11.6985 18.2802 11.8174 18.4001 11.8916 18.5405L16.4141 16.7629C16.3999 16.7062 16.3928 16.6484 16.3929 16.5904V13.2883C16.3927 13.1697 16.4226 13.0526 16.4806 12.9449L12.1375 10.787C12.0731 10.8271 12.0031 10.8602 11.9292 10.8856L8.39989 12.0873L8.38061 12.0947ZM12.448 10.4658L16.7901 12.6237C16.8548 12.5836 16.9251 12.5505 16.9994 12.5251L20.5113 11.3291C20.6365 11.2863 20.7709 11.2665 20.9057 11.2708L20.5325 7.04457L16.8605 5.16761C16.7275 5.09956 16.6157 5.00516 16.5346 4.89243L12.5 6.61086C12.5232 6.68232 12.5357 6.75707 12.5357 6.83429V10.1225C12.5359 10.241 12.5059 10.3581 12.448 10.4658Z" fill="black"/>
</svg>
