<svg width="52" height="52" viewBox="0 0 52 52" fill="none" xmlns="http://www.w3.org/2000/svg">
<path d="M45.5259 11.12C45.1209 10.9385 44.7267 10.7395 44.3447 10.5238C43.2346 9.88768 42.2167 9.13819 41.313 8.29149C39.0492 6.04761 38.2039 3.77138 37.8946 2.17917H37.9053C37.6466 0.855031 37.7533 0 37.7719 0H27.4662V34.5317C27.4662 34.9939 27.4662 35.4537 27.4449 35.9067C27.4449 35.9621 27.4369 36.013 27.4342 36.0754C27.4342 36.0985 27.4342 36.1262 27.4262 36.1516V36.1724C27.318 37.4111 26.8601 38.6078 26.093 39.6571C25.3258 40.7064 24.2728 41.5762 23.0266 42.19C21.7265 42.831 20.2561 43.1671 18.7603 43.1652C13.9608 43.1652 10.0678 39.7728 10.0678 35.5832C10.0678 31.3912 13.9608 27.9988 18.7603 27.9988C19.6696 27.9988 20.5735 28.1236 21.4374 28.3685L21.4508 19.2729C18.827 18.9795 16.1616 19.1607 13.6228 19.805C11.0839 20.4494 8.72676 21.5429 6.70009 23.0165C4.92386 24.3535 3.43048 25.9488 2.28715 27.7307C1.85252 28.3801 0.210006 30.9937 0.0126904 35.2319C-0.112632 37.6352 0.72196 40.131 1.11926 41.1593V41.1824C1.36723 41.7879 2.33781 43.8585 3.91634 45.6032C5.18928 47.0036 6.69328 48.2339 8.37993 49.2544V49.2313L8.40393 49.2544C13.3901 52.1892 18.923 51.9974 18.923 51.9974C19.8802 51.9628 23.0879 51.9974 26.7303 50.5023C30.7699 48.8431 33.0684 46.3727 33.0684 46.3727C34.5379 44.8963 35.7065 43.2138 36.5241 41.3974C37.4573 39.2713 37.7666 36.7247 37.7666 35.7079V17.3849C37.8919 17.4496 39.5585 18.404 39.5585 18.404C39.5585 18.404 41.9582 19.7374 45.6992 20.6039C48.3817 21.2209 52 21.3527 52 21.3527V12.4858C50.7334 12.6059 48.1603 12.2593 45.5233 11.1223L45.5259 11.12Z" fill="white"/>
</svg>
