<svg width="273" height="324" viewBox="0 0 273 324" fill="none" xmlns="http://www.w3.org/2000/svg">
<path d="M35.35 162.06V180H31.96V162.06H25.72V159.06H41.59V162.06H35.35ZM52.3206 180.36C50.9606 180.36 49.7206 180.13 48.6006 179.67C47.5006 179.19 46.5506 178.5 45.7506 177.6C44.9706 176.68 44.3606 175.55 43.9206 174.21C43.5006 172.85 43.2906 171.29 43.2906 169.53C43.2906 167.77 43.5006 166.22 43.9206 164.88C44.3606 163.52 44.9706 162.39 45.7506 161.49C46.5506 160.57 47.5006 159.88 48.6006 159.42C49.7206 158.94 50.9606 158.7 52.3206 158.7C53.6806 158.7 54.9106 158.94 56.0106 159.42C57.1306 159.88 58.0806 160.57 58.8606 161.49C59.6606 162.39 60.2706 163.52 60.6906 164.88C61.1306 166.22 61.3506 167.77 61.3506 169.53C61.3506 171.29 61.1306 172.85 60.6906 174.21C60.2706 175.55 59.6606 176.68 58.8606 177.6C58.0806 178.5 57.1306 179.19 56.0106 179.67C54.9106 180.13 53.6806 180.36 52.3206 180.36ZM52.3206 177.33C53.1206 177.33 53.8506 177.19 54.5106 176.91C55.1906 176.63 55.7606 176.23 56.2206 175.71C56.7006 175.17 57.0706 174.52 57.3306 173.76C57.5906 173 57.7206 172.14 57.7206 171.18V167.88C57.7206 166.92 57.5906 166.06 57.3306 165.3C57.0706 164.54 56.7006 163.9 56.2206 163.38C55.7606 162.84 55.1906 162.43 54.5106 162.15C53.8506 161.87 53.1206 161.73 52.3206 161.73C51.5006 161.73 50.7606 161.87 50.1006 162.15C49.4406 162.43 48.8706 162.84 48.3906 163.38C47.9306 163.9 47.5706 164.54 47.3106 165.3C47.0506 166.06 46.9206 166.92 46.9206 167.88V171.18C46.9206 172.14 47.0506 173 47.3106 173.76C47.5706 174.52 47.9306 175.17 48.3906 175.71C48.8706 176.23 49.4406 176.63 50.1006 176.91C50.7606 177.19 51.5006 177.33 52.3206 177.33ZM68.788 159.06V171.96C68.788 173.74 69.128 175.08 69.808 175.98C70.488 176.88 71.648 177.33 73.288 177.33C74.928 177.33 76.088 176.88 76.768 175.98C77.448 175.08 77.788 173.74 77.788 171.96V159.06H81.118V171.42C81.118 172.96 80.978 174.29 80.698 175.41C80.418 176.53 79.968 177.46 79.348 178.2C78.728 178.92 77.918 179.46 76.918 179.82C75.938 180.18 74.728 180.36 73.288 180.36C71.848 180.36 70.628 180.18 69.628 179.82C68.648 179.46 67.848 178.92 67.228 178.2C66.608 177.46 66.158 176.53 65.878 175.41C65.598 174.29 65.458 172.96 65.458 171.42V159.06H68.788ZM89.5345 180H86.1445V159.06H95.1745C97.0545 159.06 98.5345 159.63 99.6145 160.77C100.694 161.89 101.234 163.42 101.234 165.36C101.234 166.86 100.884 168.11 100.184 169.11C99.5045 170.09 98.4945 170.78 97.1545 171.18L101.684 180H97.9045L93.7045 171.54H89.5345V180ZM94.9345 168.69C95.7945 168.69 96.4645 168.47 96.9445 168.03C97.4245 167.57 97.6645 166.92 97.6645 166.08V164.64C97.6645 163.8 97.4245 163.16 96.9445 162.72C96.4645 162.26 95.7945 162.03 94.9345 162.03H89.5345V168.69H94.9345ZM111.443 168.42L109.133 163.98H109.043V180H105.803V159.06H109.583L116.423 170.64L118.733 175.08H118.823V159.06H122.063V180H118.283L111.443 168.42ZM140.299 180L138.409 174.33H130.579L128.749 180H125.299L132.439 159.06H136.699L143.839 180H140.299ZM134.569 162.18H134.419L131.389 171.42H137.569L134.569 162.18ZM163.102 163.98H162.952L161.302 167.37L156.712 175.74L152.122 167.37L150.472 163.98H150.322V180H147.082V159.06H151.102L156.712 169.71H156.892L162.502 159.06H166.342V180H163.102V163.98ZM171.516 180V159.06H184.926V162.06H174.906V167.88H183.996V170.88H174.906V177H184.926V180H171.516ZM194.939 168.42L192.629 163.98H192.539V180H189.299V159.06H193.079L199.919 170.64L202.229 175.08H202.319V159.06H205.559V180H201.779L194.939 168.42ZM218.485 162.06V180H215.095V162.06H208.855V159.06H224.725V162.06H218.485ZM233.977 180.36C232.217 180.36 230.717 180.04 229.477 179.4C228.257 178.76 227.207 177.9 226.327 176.82L228.667 174.63C229.407 175.53 230.217 176.21 231.097 176.67C231.997 177.13 233.017 177.36 234.157 177.36C235.497 177.36 236.507 177.06 237.187 176.46C237.867 175.86 238.207 175.05 238.207 174.03C238.207 173.21 237.967 172.56 237.487 172.08C237.007 171.6 236.157 171.24 234.937 171L233.077 170.67C231.037 170.29 229.507 169.62 228.487 168.66C227.467 167.7 226.957 166.38 226.957 164.7C226.957 163.78 227.127 162.95 227.467 162.21C227.827 161.45 228.317 160.82 228.937 160.32C229.577 159.8 230.347 159.4 231.247 159.12C232.147 158.84 233.157 158.7 234.277 158.7C235.857 158.7 237.227 158.98 238.387 159.54C239.547 160.08 240.537 160.87 241.357 161.91L238.987 164.01C238.447 163.31 237.787 162.75 237.007 162.33C236.227 161.91 235.257 161.7 234.097 161.7C232.897 161.7 231.967 161.94 231.307 162.42C230.647 162.9 230.317 163.6 230.317 164.52C230.317 165.4 230.587 166.06 231.127 166.5C231.667 166.92 232.507 167.24 233.647 167.46L235.507 167.85C237.607 168.25 239.137 168.93 240.097 169.89C241.077 170.85 241.567 172.17 241.567 173.85C241.567 174.83 241.397 175.72 241.057 176.52C240.717 177.32 240.217 178.01 239.557 178.59C238.917 179.15 238.127 179.59 237.187 179.91C236.247 180.21 235.177 180.36 233.977 180.36Z" fill="#0D155A"/>
<g filter="url(#filter0_d_102_40)">
<path d="M186.341 85.0313V84.7314C186.391 83.7818 186.441 82.8822 186.441 81.9325C186.443 70.4849 182.51 59.3848 175.301 50.4951C175.196 50.2795 175.042 50.0913 174.852 49.9453C169.491 43.5142 162.604 38.5308 154.82 35.4511L154.57 35.3511C142.94 30.8218 130.034 30.8218 118.404 35.3511L118.154 35.4511C110.371 38.5308 103.483 43.5142 98.1225 49.9453C97.9321 50.0913 97.7782 50.2795 97.6729 50.4951C90.4641 59.3848 86.5308 70.4849 86.5332 81.9325C86.5332 82.8822 86.5832 83.7818 86.6331 84.7314V85.0313C87.1485 93.3916 89.7598 101.487 94.2261 108.572C94.3126 108.773 94.4307 108.958 94.5758 109.122C101.355 119.534 111.747 127.065 123.749 130.263H123.999C132.188 132.395 140.786 132.395 148.976 130.263H149.225C161.227 127.065 171.619 119.534 178.398 109.122C178.544 108.958 178.662 108.773 178.748 108.572C183.214 101.487 185.826 93.3916 186.341 85.0313ZM156.319 105.823L151.024 98.5759L158.017 77.0345L166.559 74.2856L182.295 85.731C181.72 92.8495 179.479 99.7326 175.751 105.823H156.319ZM116.655 105.823H97.2233C93.4957 99.7326 91.2538 92.8495 90.6794 85.731L106.415 74.2856L114.957 77.0345L121.951 98.5759L116.655 105.823ZM98.722 55.793L103.717 71.2868L90.5295 80.883C90.7155 71.8922 93.5669 63.1595 98.722 55.793ZM125.597 96.9266L118.903 76.1848L136.487 63.3899L154.071 76.1848L147.377 96.9266H125.597ZM182.445 80.883L169.257 71.2868L174.252 55.793C179.407 63.1595 182.259 71.8922 182.445 80.883ZM171.305 51.9445L165.31 70.4371L156.768 73.236L138.485 59.9413V50.9449L154.221 39.4995C160.8 42.2717 166.648 46.5315 171.305 51.9445ZM149.675 37.9001L136.487 47.4963L123.299 37.9001C131.899 35.301 141.075 35.301 149.675 37.9001ZM118.753 39.4995L134.489 50.9449V59.9413L116.206 73.236L107.664 70.4371L101.669 51.9445C106.327 46.5315 112.174 42.2717 118.753 39.4995ZM99.9708 109.821H116.256L121.301 125.315C112.837 122.335 105.425 116.951 99.9708 109.821ZM125.947 126.715L119.902 108.172L125.198 100.925H147.777L153.072 108.172L147.027 126.715C140.091 128.313 132.883 128.313 125.947 126.715ZM151.673 125.315L156.718 109.821H173.003C167.55 116.951 160.137 122.335 151.673 125.315Z" fill="#CC9C17"/>
</g>
<path d="M19.9286 202.167H3.27734C7.49467 256.766 54.3205 280.562 135.563 323.351C217.568 279.58 263.516 255.035 267.848 202.167H250.272C247.882 244.31 204.668 266.277 135.563 305.775C64.5233 266.456 22.8143 244.493 19.9286 202.167Z" fill="#2A55AA"/>
<path d="M18.0783 17.1528V115.21H0.501953V0.501465H272.473V115.21H254.897V17.1528H18.0783Z" fill="url(#paint0_linear_102_40)"/>
<line x1="114.285" y1="204.867" x2="158.689" y2="204.867" stroke="#CC9C17" stroke-width="2"/>
<defs>
<filter id="filter0_d_102_40" x="82.5332" y="31.9541" width="107.908" height="107.908" filterUnits="userSpaceOnUse" color-interpolation-filters="sRGB">
<feFlood flood-opacity="0" result="BackgroundImageFix"/>
<feColorMatrix in="SourceAlpha" type="matrix" values="0 0 0 0 0 0 0 0 0 0 0 0 0 0 0 0 0 0 127 0" result="hardAlpha"/>
<feOffset dy="4"/>
<feGaussianBlur stdDeviation="2"/>
<feComposite in2="hardAlpha" operator="out"/>
<feColorMatrix type="matrix" values="0 0 0 0 0 0 0 0 0 0 0 0 0 0 0 0 0 0 0.25 0"/>
<feBlend mode="normal" in2="BackgroundImageFix" result="effect1_dropShadow_102_40"/>
<feBlend mode="normal" in="SourceGraphic" in2="effect1_dropShadow_102_40" result="shape"/>
</filter>
<linearGradient id="paint0_linear_102_40" x1="136.488" y1="0.501465" x2="136.488" y2="115.21" gradientUnits="userSpaceOnUse">
<stop stop-color="#24336A"/>
<stop offset="1" stop-color="#2A51A3"/>
</linearGradient>
</defs>
</svg>
