<svg width="779" height="1046" viewBox="0 0 779 1046" fill="none" xmlns="http://www.w3.org/2000/svg">
<rect width="779" height="1046" rx="13" fill="#E3E3E3"/>
<line x1="11.9983" y1="6.66445" x2="269.347" y2="366.025" stroke="#949494"/>
<line x1="764.683" y1="1036.64" x2="507.335" y2="677.279" stroke="#949494"/>
<line x1="774.765" y1="7.25349" x2="508.143" y2="366.614" stroke="#949494"/>
<line x1="8.87189" y1="1036.05" x2="275.494" y2="676.69" stroke="#949494"/>
<path d="M469.249 480H307.751C304.9 480 302.165 481.17 300.149 483.254C298.133 485.337 297 488.163 297 491.109V598.891C297 601.837 298.133 604.663 300.149 606.746C302.165 608.83 304.9 610 307.751 610H469.249C472.1 610 474.835 608.83 476.851 606.746C478.867 604.663 480 601.837 480 598.891V491.109C480 488.163 478.867 485.337 476.851 483.254C474.835 481.17 472.1 480 469.249 480ZM468.562 598.182H308.438V491.818H468.562V598.182Z" fill="#949494"/>
<path d="M459 440.5C459 439.307 458.399 438.162 457.328 437.318C456.258 436.474 454.806 436 453.292 436H327.708C326.194 436 324.742 436.474 323.672 437.318C322.601 438.162 322 439.307 322 440.5V445H459V440.5Z" fill="#949494"/>
<path d="M471 466C471 464.674 470.379 463.402 469.274 462.464C468.169 461.527 466.67 461 465.107 461H311.893C310.33 461 308.831 461.527 307.726 462.464C306.621 463.402 306 464.674 306 466V471H471V466Z" fill="#949494"/>
<path d="M361.324 578.382C362.881 579.421 364.692 579.982 366.547 580C367.884 579.997 369.205 579.701 370.422 579.133L425.291 553.944C426.987 553.186 428.431 551.935 429.446 550.344C430.46 548.753 431 546.892 431 544.989C431 543.087 430.46 541.226 429.446 539.635C428.431 538.044 426.987 536.793 425.291 536.035L370.422 510.845C368.97 510.182 367.38 509.902 365.797 510.03C364.213 510.159 362.685 510.692 361.352 511.581C360.019 512.47 358.923 513.688 358.163 515.123C357.403 516.558 357.003 518.166 357 519.8V570.179C357.003 571.808 357.4 573.41 358.154 574.843C358.909 576.275 359.999 577.491 361.324 578.382ZM364.862 519.8C364.861 519.51 364.932 519.224 365.07 518.971C365.208 518.718 365.407 518.506 365.649 518.356C365.943 518.272 366.253 518.272 366.547 518.356C366.769 518.304 366.999 518.304 367.221 518.356L422.09 543.487C422.4 543.618 422.663 543.843 422.844 544.132C423.025 544.421 423.114 544.761 423.101 545.105C423.111 545.441 423.019 545.771 422.838 546.051C422.656 546.33 422.395 546.545 422.09 546.665L367.221 571.854C366.982 571.996 366.711 572.071 366.435 572.071C366.159 572.071 365.888 571.996 365.649 571.854C365.414 571.696 365.221 571.482 365.084 571.231C364.947 570.979 364.871 570.698 364.862 570.41V519.8Z" fill="#949494"/>
</svg>
