<svg width="29" height="23" viewBox="0 0 29 23" fill="none" xmlns="http://www.w3.org/2000/svg">
<path d="M22.475 14.6944H20.3V10.8611H22.475V14.6944ZM20.3 0C19.5025 0 18.85 0.575 18.85 1.27778V2.55556H10.15V1.27778C10.15 0.575 9.4975 0 8.7 0C7.9025 0 7.25 0.575 7.25 1.27778V2.55556H2.9C1.305 2.55556 0 3.70556 0 5.11111V20.4444C0 21.85 1.305 23 2.9 23H26.1C27.695 23 29 21.85 29 20.4444V5.11111C29 3.70556 27.695 2.55556 26.1 2.55556H21.75V1.27778C21.75 0.575 21.0975 0 20.3 0ZM10.875 15.6528C10.875 16.1767 10.382 16.6111 9.7875 16.6111H5.8C5.0025 16.6111 4.35 16.0361 4.35 15.3333V13.4167C4.35 12.7139 5.0025 12.1389 5.8 12.1389H8.7V10.8611H5.4375C4.843 10.8611 4.35 10.4267 4.35 9.90278C4.35 9.37889 4.843 8.94444 5.4375 8.94444H9.425C10.2225 8.94444 10.875 9.51944 10.875 10.2222V12.1389C10.875 12.8417 10.2225 13.4167 9.425 13.4167H6.525V14.6944H9.7875C10.382 14.6944 10.875 15.1289 10.875 15.6528ZM24.65 15.3333C24.65 16.0361 23.9975 16.6111 23.2 16.6111H19.575C18.7775 16.6111 18.125 16.0361 18.125 15.3333V10.2222C18.125 9.51944 18.7775 8.94444 19.575 8.94444H23.2C23.9975 8.94444 24.65 9.51944 24.65 10.2222V15.3333ZM15.5875 6.06944C15.5875 6.59333 15.0945 7.02778 14.5 7.02778C13.9055 7.02778 13.4125 6.59333 13.4125 6.06944C13.4125 5.54556 13.9055 5.11111 14.5 5.11111C15.0945 5.11111 15.5875 5.54556 15.5875 6.06944ZM15.5875 10.5417C15.5875 11.0656 15.0945 11.5 14.5 11.5C13.9055 11.5 13.4125 11.0656 13.4125 10.5417C13.4125 10.0178 13.9055 9.58333 14.5 9.58333C15.0945 9.58333 15.5875 10.0178 15.5875 10.5417ZM15.5875 15.0139C15.5875 15.5378 15.0945 15.9722 14.5 15.9722C13.9055 15.9722 13.4125 15.5378 13.4125 15.0139C13.4125 14.49 13.9055 14.0556 14.5 14.0556C15.0945 14.0556 15.5875 14.49 15.5875 15.0139ZM15.5875 19.4861C15.5875 20.01 15.0945 20.4444 14.5 20.4444C13.9055 20.4444 13.4125 20.01 13.4125 19.4861C13.4125 18.9622 13.9055 18.5278 14.5 18.5278C15.0945 18.5278 15.5875 18.9622 15.5875 19.4861Z" fill="black"/>
</svg>
